# Export of Cubik Model: Cubik Model
# Designed by Syjwlok with Cubik Studio - https://cubik.studio
# from Cubik OBJ Exporter v1.0
mtllib energy_stone_epic.mtl
v -1.5 -3.5 1.5 1 1 1
v 1.5 -3.5 -1.5 1 1 1
v -1.5 -3.5 -1.5 1 1 1
v 1.5 -3.5 1.5 1 1 1
v -1.5 3.500001 1.5 1 1 1
v 1.5 3.500001 -1.5 1 1 1
v 1.5 3.500001 1.5 1 1 1
v -1.5 3.500001 -1.5 1 1 1
v -1.5 -3.5 1.5 1 1 1
v 1.5 3.500001 1.5 1 1 1
v 1.5 -3.5 1.5 1 1 1
v -1.5 3.500001 1.5 1 1 1
v 1.5 -3.5 1.5 1 1 1
v 1.5 3.500001 -1.5 1 1 1
v 1.5 -3.5 -1.5 1 1 1
v 1.5 3.500001 1.5 1 1 1
v 1.5 -3.5 -1.5 1 1 1
v -1.5 3.500001 -1.5 1 1 1
v -1.5 -3.5 -1.5 1 1 1
v 1.5 3.500001 -1.5 1 1 1
v -1.5 -3.5 -1.5 1 1 1
v -1.5 3.500001 1.5 1 1 1
v -1.5 -3.5 1.5 1 1 1
v -1.5 3.500001 -1.5 1 1 1
vn 0 -1 0
vn 0 1 0
vn 0 0 1
vn 1 0 0
vn 0 0 -1
vn -1 0 0
vt 0.9363809 0.06365247
vt 0.6260271 0.3738946
vt 0.9363809 0.3738946
vt 0.6260271 0.06365247
vt 0.000515611 0.6882836
vt 0.3116898 0.9996317
vt 0.3116898 0.6882836
vt 0.000515611 0.9996317
vt 0.0008072259 0.3756607
vt 0.3117008 0.6869622
vt 0.3117008 0.3756607
vt 0.0008072259 0.6869622
vt 0.3131614 0.3753878
vt 0.6245227 0.6869545
vt 0.6245227 0.3753878
vt 0.3131614 0.6869545
vt 0.6257279 0.3757787
vt 0.9366672 0.686971
vt 0.9366672 0.3757787
vt 0.6257279 0.686971
vt 0.0005423072 0.06341752
vt 0.3114154 0.374614
vt 0.3114154 0.06341752
vt 0.0005423072 0.374614
v 0 7.5 1.192093E-07 1 1 1
v 1.5 3.5 1.5 1 1 1
v -1.5 3.5 1.5 1 1 1
v 0 7.5 1.192093E-07 1 1 1
v 1.5 3.5 -1.5 1 1 1
v 1.5 3.5 1.5 1 1 1
v 0 7.5 1.192093E-07 1 1 1
v -1.5 3.5 -1.5 1 1 1
v 1.5 3.5 -1.5 1 1 1
v 0 7.5 1.192093E-07 1 1 1
v -1.5 3.5 1.5 1 1 1
v -1.5 3.5 -1.5 1 1 1
v -1.5 3.5 1.5 1 1 1
v 1.5 3.5 1.5 1 1 1
v 0 3.5 1.192093E-07 1 1 1
v 1.5 3.5 -1.5 1 1 1
v -1.5 3.5 -1.5 1 1 1
vn 0 0.4472136 0.8944272
vn 0.8944272 0.4472136 0
vn 0 0.4472136 -0.8944272
vn -0.8944272 0.4472136 0
vt 0.4683822 0.9981927
vt 0.6221294 0.6894763
vt 0.3146349 0.6894763
vt 0.7816854 1
vt 0.9367163 0.6886562
vt 0.6266546 0.6886562
vt 0.1562923 0.6852363
vt 0.3100396 0.3765199
vt 0.002545074 0.3765199
vt 0.1551397 1
vt 0.3102794 0.6895779
vt 0 0.6895779
vt 0.628401 0.6852934
vt 0.9356243 0.6852934
vt 0.7820126 0.53084
vt 0.9356243 0.3763865
vt 0.628401 0.3763865
v 0 -7.5 -4.768372E-07 1 1 1
v 1.5 -3.5 -1.5 1 1 1
v -1.5 -3.5 -1.5 1 1 1
v 0 -7.5 -4.768372E-07 1 1 1
v 1.5 -3.5 1.5 1 1 1
v 1.5 -3.5 -1.5 1 1 1
v 0 -7.5 -4.768372E-07 1 1 1
v -1.5 -3.5 1.5 1 1 1
v 1.5 -3.5 1.5 1 1 1
v 0 -7.5 -4.768372E-07 1 1 1
v -1.5 -3.5 -1.5 1 1 1
v -1.5 -3.5 1.5 1 1 1
v -1.5 -3.5 -1.5 1 1 1
v 1.5 -3.5 -1.5 1 1 1
v 0 -3.5 -1.192093E-07 1 1 1
v 1.5 -3.5 1.5 1 1 1
v -1.5 -3.5 1.5 1 1 1
vn 0 -0.4472135 -0.8944272
vn 0.8944272 -0.4472136 -3.909665E-08
vn 0 -0.4472137 0.8944271
vn -0.8944272 -0.4472136 -3.909665E-08
vn 0 1 8.742278E-08
g Cube
usemtl primitive (Instance)
f 3/3/1 2/2/1 1/1/1
f 4/4/1 1/1/1 2/2/1
f 7/7/2 6/6/2 5/5/2
f 8/8/2 5/5/2 6/6/2
f 11/11/3 10/10/3 9/9/3
f 12/12/3 9/9/3 10/10/3
f 15/15/4 14/14/4 13/13/4
f 16/16/4 13/13/4 14/14/4
f 19/19/5 18/18/5 17/17/5
f 20/20/5 17/17/5 18/18/5
f 23/23/6 22/22/6 21/21/6
f 24/24/6 21/21/6 22/22/6
g Pyramid
usemtl primitive (Instance)
f 27/27/7 26/26/7 25/25/7
f 30/30/8 29/29/8 28/28/8
f 33/33/9 32/32/9 31/31/9
f 36/36/10 35/35/10 34/34/10
f 39/39/1 38/38/1 37/37/1
f 39/39/1 40/40/1 38/38/1
f 39/39/1 41/41/1 40/40/1
f 39/39/1 37/37/1 41/41/1
g Pyramid
usemtl primitive (Instance)
f 44/27/11 43/26/11 42/25/11
f 47/30/12 46/29/12 45/28/12
f 50/33/13 49/32/13 48/31/13
f 53/36/14 52/35/14 51/34/14
f 56/39/15 55/38/15 54/37/15
f 56/39/15 57/40/15 55/38/15
f 56/39/15 58/41/15 57/40/15
f 56/39/15 54/37/15 58/41/15
